<?xml version="1.0" encoding="UTF-8"?>
<svg version="1.1" xmlns="http://www.w3.org/2000/svg" width="500" height="500">
<path d="M0 0 C165 0 330 0 500 0 C500 165 500 330 500 500 C335 500 170 500 0 500 C0 335 0 170 0 0 Z " fill="#FEFEFE" transform="translate(0,0)"/>
<path d="M0 0 C2.04724701 1.00545267 3.71567316 1.67823282 5.98046875 1.97265625 C7.71611828 1.02593832 9.45420337 0.07361193 11.1015625 -1.01953125 C15.57248932 -3.41765832 20.45217367 -3.18983975 25.41796875 -3.21484375 C27.33416016 -3.23611328 27.33416016 -3.23611328 29.2890625 -3.2578125 C37.9234959 -2.71873147 44.87987984 1.45878257 50.73046875 7.66015625 C56.957318 15.31191379 58.70160379 22.78087509 58.3515625 32.58203125 C57.2688847 42.47428737 52.4016585 49.4819872 44.98046875 55.97265625 C36.61344675 62.03670314 25.95040525 62.54109458 15.98046875 60.97265625 C12.99011146 59.8941076 10.5689353 58.71664219 7.92578125 56.96875 C6.04466007 55.78044072 6.04466007 55.78044072 3.984375 56.19140625 C1.8498027 57.02359818 -0.15301815 58.02087368 -2.20703125 59.03515625 C-10.19579049 62.25433034 -19.93531764 62.57253939 -28.16015625 59.984375 C-30.60504595 58.80219031 -32.79041915 57.51865335 -35.01953125 55.97265625 C-35.92703125 55.39515625 -36.83453125 54.81765625 -37.76953125 54.22265625 C-45.90724648 46.08494102 -48.45382063 37.43883423 -48.45776367 26.04345703 C-48.29024954 19.65430556 -46.60579774 15.17274266 -43.01953125 9.97265625 C-42.29765625 8.90015625 -41.57578125 7.82765625 -40.83203125 6.72265625 C-29.97730887 -3.89085007 -13.74899223 -6.78932537 0 0 Z " fill="#FF7542" transform="translate(209.01953125,228.02734375)"/>
<path d="M0 0 C7.75 0.875 7.75 0.875 10 2 C9.58578031 6.83256305 7.53586014 8.82679218 4 12 C5.39759905 15.54518884 5.39759905 15.54518884 7 19 C7.54360446 23.95482094 7.56437074 27.87125852 5.3125 32.375 C-1.88354271 40.54348091 -9.60302226 41.2855603 -20 42 C-20 43.32 -20 44.64 -20 46 C-19.40574219 46.03963867 -18.81148438 46.07927734 -18.19921875 46.12011719 C-15.46459315 46.31256168 -12.73262995 46.53109773 -10 46.75 C-8.59814453 46.8428125 -8.59814453 46.8428125 -7.16796875 46.9375 C-0.10883191 47.52987512 5.77039134 48.87251335 10.9765625 53.9140625 C13.0081248 58.05472765 12.47529603 62.5139868 12 67 C10.05688139 72.62481703 6.89861268 75.55069366 1.625 78.1875 C-8.53438873 81.3320727 -21.35123835 81.82438082 -31 77 C-34.37533534 74.77371499 -36.73872184 72.89849613 -38 69 C-38.64464475 64.76376309 -38.20913208 63.31668572 -35.8125 59.6875 C-32.99366389 56.99394549 -31.80905906 56.21766052 -28 56 C-28.66 55.34 -29.32 54.68 -30 54 C-32.75777063 49.86334406 -32.62388198 47.91307062 -32 43 C-30.125 40.625 -30.125 40.625 -28 39 C-27.34 38.34 -26.68 37.68 -26 37 C-26.42152344 36.51789063 -26.84304688 36.03578125 -27.27734375 35.5390625 C-27.82519531 34.90742188 -28.37304688 34.27578125 -28.9375 33.625 C-29.48277344 32.99851562 -30.02804687 32.37203125 -30.58984375 31.7265625 C-33.49496662 28.16959766 -33.33522825 25.06257531 -33.27734375 20.60546875 C-32.83252459 16.42667465 -31.55418806 14.36077377 -29 11 C-23.82222303 6.98458112 -20.09835462 5.84953292 -13.625 5.8125 C-12.50351562 5.79832031 -11.38203125 5.78414062 -10.2265625 5.76953125 C-7.05115158 5.99634632 -4.85765282 6.64609332 -2 8 C-1.34 5.36 -0.68 2.72 0 0 Z " fill="#070707" transform="translate(307,229)"/>
<path d="M0 0 C4.29 0 8.58 0 13 0 C13.33 8.58 13.66 17.16 14 26 C16.97 23.525 16.97 23.525 20 21 C25.50398334 19.16533889 31.8712235 18.9059507 37.390625 20.8359375 C43.41419529 24.26155572 46.83847351 29.51542052 49 36 C49.27879899 39.20330421 49.27751327 42.41088553 49.3125 45.625 C49.34150391 46.48996094 49.37050781 47.35492188 49.40039062 48.24609375 C49.46877806 55.26369681 48.17035685 61.6387521 43.2199707 66.88720703 C37.67760048 71.88281397 33.31456029 73.50489619 25.83984375 73.39453125 C21.5420354 72.79744921 18.15099361 70.97944955 15 68 C15 67.34 15 66.68 15 66 C14.34 66 13.68 66 13 66 C13 67.98 13 69.96 13 72 C8.71 72 4.42 72 0 72 C0 48.24 0 24.48 0 0 Z " fill="#050505" transform="translate(72,215)"/>
<path d="M0 0 C1.92993743 1.19720185 3.35724709 2.4936847 4.8828125 4.16796875 C4.1609375 4.80734375 3.4390625 5.44671875 2.6953125 6.10546875 C-4.0766672 12.83886167 -6.42374046 20.79852463 -6.51098633 30.11230469 C-6.36116469 38.07098278 -3.88477421 45.55260574 1.8828125 51.16796875 C1.8828125 51.82796875 1.8828125 52.48796875 1.8828125 53.16796875 C2.8728125 53.49796875 3.8628125 53.82796875 4.8828125 54.16796875 C-2.86505672 61.18947523 -10.92512608 61.92551456 -20.96875 61.58984375 C-26.45423286 61.19749142 -30.62695852 59.28215981 -35.1171875 56.16796875 C-36.0246875 55.59046875 -36.9321875 55.01296875 -37.8671875 54.41796875 C-46.00490273 46.28025352 -48.55147688 37.63414673 -48.55541992 26.23876953 C-48.38790579 19.84961806 -46.70345399 15.36805516 -43.1171875 10.16796875 C-42.3953125 9.09546875 -41.6734375 8.02296875 -40.9296875 6.91796875 C-29.96693133 -3.80117062 -13.96784984 -6.35123486 0 0 Z " fill="#FFDD59" transform="translate(209.1171875,227.83203125)"/>
<path d="M0 0 C1.671875 1.0703125 1.671875 1.0703125 3.671875 3.0703125 C3.671875 4.8828125 3.671875 4.8828125 2.671875 7.0703125 C0.77359425 8.9160093 -1.21837092 10.45433065 -3.328125 12.0703125 C-4.1325 11.4103125 -4.936875 10.7503125 -5.765625 10.0703125 C-9.72872701 7.39356341 -13.69294239 7.50482022 -18.328125 8.0703125 C-19.318125 8.5653125 -19.318125 8.5653125 -20.328125 9.0703125 C-20.328125 10.7203125 -20.328125 12.3703125 -20.328125 14.0703125 C-16.39763067 16.36310086 -12.85380033 17.4420177 -8.390625 18.3828125 C-2.7803772 19.69466149 0.90546696 21.69445332 4.671875 26.0703125 C6.51934021 29.76524293 6.0138188 34.02915854 5.671875 38.0703125 C4.0027464 42.81415167 1.83853548 45.29253884 -2.328125 48.0703125 C-9.34651363 51.43479777 -17.89088089 51.08647118 -25.265625 48.8828125 C-29.3394348 47.31943162 -32.1778301 45.05905382 -35.328125 42.0703125 C-34.85610014 37.82208876 -32.36156982 35.87041541 -29.328125 33.0703125 C-27.10379216 34.14128757 -25.21412591 35.16012996 -23.265625 36.6953125 C-18.77279192 38.79834075 -14.21614481 38.47961529 -9.328125 38.0703125 C-8.338125 37.5753125 -8.338125 37.5753125 -7.328125 37.0703125 C-7.328125 35.4203125 -7.328125 33.7703125 -7.328125 32.0703125 C-10.98488919 30.66386473 -14.60329482 29.28916445 -18.35546875 28.15625 C-28.64121629 25.02856904 -28.64121629 25.02856904 -32.328125 20.0703125 C-34.17978545 14.51533114 -34.21214991 9.05936855 -31.828125 3.6953125 C-23.40679971 -5.14707905 -10.61884473 -5.3892633 0 0 Z " fill="#060606" transform="translate(386.328125,237.9296875)"/>
<path d="M0 0 C0 3.96 0 7.92 0 12 C4.62 12 9.24 12 14 12 C14 15.3 14 18.6 14 22 C9.38 22 4.76 22 0 22 C0.11967124 25.96952059 0.24221717 29.93878262 0.37231445 33.90795898 C0.41571223 35.25914147 0.4573837 36.61038053 0.49731445 37.96166992 C0.55489952 39.90036701 0.61914298 41.83886276 0.68359375 43.77734375 C0.72025146 44.94515381 0.75690918 46.11296387 0.79467773 47.31616211 C0.70076188 49.91779795 0.70076188 49.91779795 2 51 C3.85287502 51.07226502 5.70833878 51.0838122 7.5625 51.0625 C8.57441406 51.05347656 9.58632813 51.04445313 10.62890625 51.03515625 C11.41136719 51.02355469 12.19382812 51.01195312 13 51 C16 57.625 16 57.625 16 61 C10.35480295 64.7634647 4.63138851 64.78330495 -2 64 C-6.67599706 62.59970142 -9.84434535 59.7664916 -12.19726562 55.47241211 C-14.09343285 49.63224013 -13.39546035 43.14644769 -13.25 37.0625 C-13.22990977 35.60093585 -13.21166344 34.13934514 -13.1953125 32.67773438 C-13.15150336 29.11793226 -13.08261546 25.55913746 -13 22 C-15.64 22 -18.28 22 -21 22 C-21 18.7 -21 15.4 -21 12 C-18.36 12 -15.72 12 -13 12 C-13 8.37 -13 4.74 -13 1 C-3.375 0 -3.375 0 0 0 Z " fill="#060606" transform="translate(418,224)"/>
<path d="M0 0 C4.29 0 8.58 0 13 0 C13.33 19.8 13.66 39.6 14 60 C15.98 60.66 17.96 61.32 20 62 C20.33 65.3 20.66 68.6 21 72 C17.28251527 73.85874236 13.05714187 73.43625181 9 73 C4.5858924 70.99358745 2.41308873 68.85490281 0.5977478 64.35177612 C-0.77445129 58.95300252 -0.35919512 53.28749223 -0.29296875 47.75390625 C-0.28736543 46.37386031 -0.28309881 44.99380835 -0.28010559 43.61375427 C-0.26871456 40.00183298 -0.23929805 36.39028025 -0.20599365 32.77850342 C-0.17516793 29.08480819 -0.16157369 25.39105273 -0.14648438 21.69726562 C-0.11442172 14.46465719 -0.06170203 7.23242744 0 0 Z " fill="#050505" transform="translate(133,215)"/>
<path d="M0 0 C4.29 0 8.58 0 13 0 C13 16.83 13 33.66 13 51 C8.71 51 4.42 51 0 51 C0 34.17 0 17.34 0 0 Z " fill="#030303" transform="translate(328,236)"/>
<path d="M0 0 C4.24797818 1.79359079 6.00027202 3.89943421 8 8 C8.43359375 11.55859375 8.43359375 11.55859375 8.4375 15.4375 C8.46650391 17.35369141 8.46650391 17.35369141 8.49609375 19.30859375 C7.85660879 24.06696605 6.05537944 27.38505902 2.25 30.375 C-1.22011304 31.33892029 -4.47298605 31.69418366 -8 31 C-11.30626891 28.4124852 -13.466032 25.88874344 -15 22 C-16.33659266 9.10032663 -16.33659266 9.10032663 -13.1875 4.25 C-9.06953723 0.01438115 -5.73187689 -0.71788673 0 0 Z " fill="#FAFAFA" transform="translate(100,246)"/>
<path d="M0 0 C1.25586914 -0.00386719 1.25586914 -0.00386719 2.53710938 -0.0078125 C3.41302734 -0.00007813 4.28894531 0.00765625 5.19140625 0.015625 C6.06345703 0.00789063 6.93550781 0.00015625 7.83398438 -0.0078125 C8.67251953 -0.00523437 9.51105469 -0.00265625 10.375 0 C11.14255615 0.00225586 11.9101123 0.00451172 12.70092773 0.00683594 C14.75390625 0.265625 14.75390625 0.265625 17.75390625 2.265625 C18.25390625 5.203125 18.25390625 5.203125 17.75390625 8.265625 C13.72154166 11.53283502 10.27184373 11.67089573 5.19140625 11.640625 C3.89074219 11.64835937 2.59007812 11.65609375 1.25 11.6640625 C-2.33105851 11.25594187 -3.80853661 10.87423878 -6.24609375 8.265625 C-6.62109375 5.203125 -6.62109375 5.203125 -6.24609375 2.265625 C-3.8442969 -0.13617185 -3.27659368 0.00964413 0 0 Z " fill="#FBFBFB" transform="translate(288.24609375,287.734375)"/>
<path d="M0 0 C4.15526322 0.65609419 5.84398463 1.34970911 8.5625 4.5625 C9.14125519 8.54144194 8.92359148 10.80749054 7.1875 14.4375 C5.5625 16.5625 5.5625 16.5625 3.5625 17.5625 C0.6875 17.875 0.6875 17.875 -2.4375 17.5625 C-5.70959157 14.90945278 -7.28202542 12.96177121 -7.75 8.75 C-7.22543397 3.39942648 -5.37226758 0.87909833 0 0 Z " fill="#F3F3F3" transform="translate(293.4375,243.4375)"/>
<path d="M0 0 C2.4375 1 2.4375 1 4 3 C4.45364856 6.1755399 4.68938436 7.98847886 4 11 C1.9375 13.5625 1.9375 13.5625 -1 15 C-4.49305789 14.93977486 -6.90366489 14.63658168 -9.9375 12.875 C-11.6712306 9.81547541 -11.42145216 7.43182475 -11 4 C-8.09912777 -0.52536068 -5.13093735 -0.64136717 0 0 Z " fill="#070707" transform="translate(338,215)"/>
</svg>
